# xmcd
#
# Track frame offsets: 
#        150
#        18305
#        37012
#        53377
#        70577
#        94962
#        119352
#        142097
#        161450
#        177227
#        191390
#        212955
#
# Disc length: 3043 seconds
#
# Revision: 1
# Processed by: cddbd v1.5.2PL0 Copyright (c) Steve Scherf et al.
# Submitted via: ExactAudioCopy v0.99pb4
#
DISCID=a30be10c
DTITLE=Lightnin' Hopkins - The Sonet Blues Story
DYEAR=1974
DGENRE=Blues
TTITLE0=Please Help Poor Me
TTITLE1=Way Out In Abilene
TTITLE2=Don't You Call That Boogie
TTITLE3=Swing In The Backyard
TTITLE4=The Hearse Is Backed Up To The Door
TTITLE5=That Meat's A Little Too High
TTITLE6=Let Them Little Things Be True
TTITLE7=I Been Burning Bad Gasoline
TTITLE8=Don't You Mess With My Woman
TTITLE9=Water Fallin' Boogie
TTITLE10=Born By The Devil
TTITLE11=Doin' My Boogie
EXTD=my webname is Mike Haggar/The Horny Antilope AND DAMN I ROOOOOOOL
EXTT0=
EXTT1=
EXTT2=
EXTT3=
EXTT4=
EXTT5=
EXTT6=
EXTT7=
EXTT8=
EXTT9=
EXTT10=
EXTT11=
PLAYORDER=
